<?xml version="1.0" standalone="no"?>
<!DOCTYPE svg PUBLIC "-//W3C//DTD SVG 20010904//EN"
 "http://www.w3.org/TR/2001/REC-SVG-20010904/DTD/svg10.dtd">
<svg version="1.0" xmlns="http://www.w3.org/2000/svg"
 width="540.000000pt" height="540.000000pt" viewBox="0 0 540.000000 540.000000"
 preserveAspectRatio="xMidYMid meet">
<metadata>
Created by potrace 1.15, written by Peter Selinger 2001-2017
</metadata>
<g transform="translate(0.000000,540.000000) scale(0.100000,-0.100000)"
fill="#000000" stroke="none">
<path d="M0 2700 l0 -2700 2700 0 2700 0 0 2700 0 2700 -2700 0 -2700 0 0
-2700z m2049 1689 c17 -59 31 -116 31 -127 0 -26 19 -39 31 -21 6 10 9 8 9 -8
0 -31 16 -29 24 3 4 15 9 25 11 23 2 -2 -3 -29 -11 -59 -8 -30 -14 -66 -13
-80 1 -15 5 -7 10 20 8 39 58 190 64 190 1 0 2 -36 2 -80 0 -53 -3 -80 -11
-80 -6 0 -3 -7 7 -14 24 -18 21 -29 -4 -15 -17 9 -20 8 -13 -3 5 -7 10 -22 10
-33 3 -42 4 -46 16 -39 7 5 8 3 3 -6 -6 -10 -12 -7 -25 10 -11 14 -20 19 -24
12 -4 -6 7 -21 24 -33 29 -22 29 -23 12 -43 -16 -18 -16 -19 1 -13 11 4 16 3
12 -4 -4 -5 -16 -7 -27 -3 -28 9 -19 -15 13 -34 23 -13 23 -13 5 2 -17 14 -17
16 -4 16 29 0 30 -19 4 -51 -23 -28 -33 -49 -22 -49 2 0 12 -3 20 -6 12 -5 15
-2 10 10 -3 9 -11 13 -18 9 -6 -3 -2 3 8 15 11 12 22 20 25 17 3 -4 0 -10 -7
-14 -10 -6 -10 -10 2 -20 22 -18 -1 -43 -27 -29 -17 8 -17 7 -7 -12 6 -12 9
-24 6 -27 -8 -8 14 -33 28 -33 6 0 3 5 -7 11 -9 6 -15 15 -12 20 4 5 11 7 16
4 5 -3 6 0 3 8 -3 8 -1 18 5 22 15 9 14 -88 -1 -103 -8 -8 -8 -15 2 -27 21
-25 27 -17 25 33 -1 26 0 35 2 19 2 -15 8 -25 12 -23 4 3 7 -7 6 -22 -3 -39
28 -76 93 -113 31 -18 89 -54 128 -81 l71 -48 7 -88 7 -87 -32 -27 c-18 -15
-36 -25 -41 -22 -4 3 -8 0 -8 -7 0 -7 -3 -9 -7 -5 -4 4 6 18 22 32 l30 24 -40
-21 -40 -21 30 26 c17 14 34 26 38 26 4 0 7 36 5 79 -3 66 -6 81 -23 92 -19
11 -19 11 -5 -6 14 -17 14 -17 -20 0 -19 10 -78 44 -131 76 -54 33 -102 59
-107 59 -6 0 -20 12 -32 28 -12 15 -19 21 -15 15 3 -7 4 -13 0 -13 -7 0 -45
63 -45 75 1 6 7 -1 15 -15 17 -31 19 -24 4 19 -8 22 -14 29 -19 20 -5 -8 -12
1 -19 27 -13 47 -13 66 0 39 7 -15 8 -11 3 15 -6 34 -10 66 -13 104 -1 14 -4
16 -15 7 -11 -9 -14 -2 -20 35 -6 46 -7 223 -1 194 2 -8 7 -33 11 -55 l8 -40
6 60 c5 56 4 62 -22 87 -26 26 -33 44 -29 77 2 7 -2 10 -7 7 -6 -3 -19 33 -31
85 -37 159 -27 163 18 8z m1326 5 c-10 -47 -23 -91 -29 -97 -6 -7 -12 -21 -14
-32 -5 -29 -45 -84 -56 -78 -5 4 -7 -1 -3 -11 4 -10 7 -38 7 -63 0 -62 13 -45
21 25 5 46 6 36 7 -48 1 -87 -13 -225 -17 -167 -2 31 -21 18 -22 -15 -1 -18 0
-37 1 -43 1 -5 4 -19 6 -30 4 -19 4 -19 -4 -1 -8 19 -9 18 -15 -5 -10 -36 -8
-58 4 -34 7 16 8 14 4 -9 -4 -16 -13 -43 -20 -60 -12 -25 -14 -26 -9 -6 l5 25
-15 -25 c-18 -30 -20 -44 -4 -34 7 5 8 3 3 -7 -19 -30 -41 -52 -65 -63 -14 -6
-80 -44 -146 -84 -126 -74 -146 -84 -123 -55 13 15 12 15 -6 4 -17 -11 -20
-25 -22 -92 -2 -43 1 -79 5 -79 4 0 21 -12 37 -26 32 -27 18 -23 -27 8 -15 10
-29 31 -31 46 -4 25 -4 25 -6 -5 -1 -27 4 -35 28 -48 35 -17 48 -35 28 -35 -8
0 -26 11 -41 25 -24 22 -26 30 -26 107 0 46 4 88 8 94 8 12 134 97 204 137 53
31 78 61 78 94 0 13 5 23 11 23 6 0 9 7 6 15 -4 8 -1 17 5 21 7 5 9 -5 6 -30
-4 -38 2 -45 22 -22 8 11 9 20 1 33 -8 14 -5 22 12 38 12 11 18 17 13 13 -24
-19 -35 -8 -26 23 5 18 7 36 4 41 -3 5 0 15 6 23 9 11 9 15 1 15 -6 0 -11 5
-11 10 0 17 14 11 28 -11 8 -12 9 -18 4 -15 -6 3 -12 -1 -16 -9 -6 -17 -4 -18
18 -9 23 9 20 24 -11 57 -27 28 -28 29 -9 43 30 22 44 16 16 -6 -14 -11 -20
-20 -15 -19 13 0 45 24 45 34 0 5 -10 19 -22 32 -21 23 -21 23 -2 38 28 21 40
18 20 -4 -17 -19 -15 -41 3 -41 13 0 20 52 10 77 -11 30 -23 29 -37 -4 -9 -22
-10 -23 -6 -4 4 16 2 21 -5 17 -6 -4 -11 0 -11 9 0 11 5 15 15 11 13 -4 13 -2
5 14 -13 24 -13 30 1 30 5 0 7 -4 4 -10 -10 -16 11 -12 25 5 7 9 9 22 5 32 -5
10 -7 25 -6 33 1 12 0 12 -7 1 -15 -22 -27 7 -27 64 0 28 -3 61 -7 75 -6 20
-5 19 6 -4 9 -21 15 -25 20 -15 3 8 3 3 0 -10 -3 -13 -1 -33 5 -45 6 -11 18
-41 26 -66 l15 -45 -4 40 c-3 22 -2 32 0 23 6 -21 24 -24 24 -4 0 8 7 13 16
12 12 -1 22 20 39 84 41 154 46 172 52 166 3 -3 -2 -44 -12 -92z m-945 39 c0
-15 -49 -138 -49 -125 -1 17 -30 15 -37 -3 -4 -9 -15 -61 -25 -118 -14 -75
-17 -86 -14 -42 3 33 8 74 10 92 4 17 1 34 -5 38 -6 3 -8 10 -5 15 3 5 1 11
-5 15 -6 4 -10 -6 -11 -22 -1 -18 -3 -22 -6 -10 -3 10 -1 26 3 35 3 9 8 26 9
37 0 11 2 30 3 42 2 23 62 53 62 30 0 -9 2 -9 8 -1 6 10 26 19 55 23 4 0 7 -2
7 -6z m307 -251 c-6 -245 -14 -312 -36 -312 -5 0 -12 8 -15 18 -11 34 -26 266
-26 410 l0 142 42 0 41 0 -6 -258z m1200 -494 c260 -260 473 -477 473 -483 0
-6 -61 -71 -135 -145 -105 -104 -132 -137 -123 -147 8 -11 7 -12 -6 -7 -12 5
-30 -5 -57 -32 l-40 -39 28 -23 c16 -13 19 -19 8 -14 -11 6 -34 23 -51 39 -16
15 -22 22 -12 14 17 -13 22 -11 58 24 30 30 37 42 29 52 -7 7 -8 13 -3 13 4 0
-5 15 -22 33 -24 27 -22 26 11 -5 l41 -38 133 134 c132 132 133 134 117 157
-24 36 -912 919 -924 919 -6 0 -8 -12 -5 -27 9 -49 15 -148 9 -142 -4 3 -7 29
-7 57 -1 29 -6 52 -10 52 -10 0 -12 41 -3 64 3 9 9 16 12 16 4 0 219 -213 479
-472z m-1629 349 c15 -41 15 -60 2 -52 -6 4 -10 -7 -10 -25 0 -18 4 -29 10
-25 6 4 8 -12 5 -42 -3 -32 -2 -40 3 -23 l8 25 13 -24 c10 -19 15 -21 22 -10
6 10 9 7 9 -11 0 -20 2 -22 10 -10 9 13 12 12 25 -5 8 -11 19 -25 25 -32 5 -7
7 -19 4 -28 -5 -13 -9 -14 -23 -3 -9 7 -8 4 4 -7 11 -11 38 -34 60 -51 33 -27
37 -34 27 -47 -10 -12 -10 -16 2 -20 10 -4 13 -1 9 9 -3 7 -2 14 2 14 9 0 80
-54 123 -94 l32 -30 -1 -105 c-1 -123 -16 -103 -18 23 -1 67 -4 83 -23 103
-22 24 -45 32 -32 11 4 -7 -7 -2 -24 11 -17 12 -31 27 -29 33 1 6 -4 13 -12
16 -9 3 -11 0 -6 -8 18 -30 -176 111 -219 159 -16 18 -19 38 -20 151 -1 71 1
130 4 130 3 0 11 -15 18 -33z m807 -129 l0 -97 -35 -36 c-19 -20 -62 -56 -95
-79 -85 -60 -85 -60 -80 -34 4 22 4 22 -10 4 -8 -10 -12 -22 -10 -27 3 -4 -9
-18 -27 -30 -17 -13 -28 -17 -23 -10 5 9 3 12 -6 9 -8 -3 -13 -10 -12 -16 1
-5 -8 -18 -20 -28 -18 -16 -20 -16 -8 -1 8 10 9 17 3 17 -25 0 -39 -43 -41
-122 -1 -45 -6 -89 -11 -97 -6 -10 -9 20 -7 85 3 111 6 118 71 165 44 33 135
110 181 154 17 17 21 21 8 11 -13 -11 -23 -15 -23 -10 0 5 -5 1 -11 -8 -5 -10
-20 -18 -32 -17 -22 0 -22 0 2 10 14 5 21 15 18 23 -4 9 0 12 12 9 12 -3 20 6
29 31 14 39 28 46 35 19 4 -14 5 -13 6 4 1 27 21 41 22 16 0 -10 3 -13 6 -5 2
6 11 12 18 12 17 0 29 32 14 40 -8 6 -8 9 0 14 6 4 11 35 12 69 0 37 3 54 7
42 4 -11 7 -64 7 -117z m-1616 -80 c29 -27 70 -57 91 -68 20 -10 56 -35 79
-54 24 -20 49 -36 56 -36 22 0 24 -13 9 -40 l-14 -25 6 26 c4 20 0 28 -18 37
-13 7 -42 28 -66 47 -79 63 -57 77 -365 -231 -152 -153 -277 -280 -277 -283 0
-15 673 -675 677 -664 2 7 10 10 17 7 8 -3 16 5 20 21 8 32 30 22 23 -11 -2
-13 0 -24 5 -24 6 0 8 -7 5 -15 -4 -8 -1 -17 5 -21 7 -5 7 -8 -1 -13 -7 -5 -6
-16 4 -35 8 -15 12 -33 8 -39 -3 -5 -14 7 -25 27 -16 31 -21 35 -38 26 -11 -6
-20 -15 -20 -21 0 -6 -5 -7 -10 -4 -6 3 -7 17 -4 31 5 18 2 24 -10 24 -9 0
-16 7 -16 16 0 8 5 12 10 9 41 -25 -33 53 -325 345 -184 184 -335 338 -335
343 0 4 126 134 280 288 l280 281 -51 46 c-29 26 -62 53 -75 60 -13 7 -24 15
-24 18 0 11 48 -22 99 -68z m1997 -178 c7 0 14 6 17 13 2 6 8 9 12 4 5 -4 3
-17 -3 -30 -14 -29 -21 -78 -11 -71 17 10 9 -19 -23 -83 -26 -52 -29 -66 -18
-73 10 -6 19 -2 28 12 11 15 16 17 23 7 6 -10 10 -10 23 0 8 7 25 11 38 9 l23
-3 -26 -23 c-25 -22 -26 -25 -13 -52 19 -37 44 -59 44 -37 0 8 7 20 15 27 22
18 20 -6 -4 -36 -16 -21 -20 -22 -37 -9 -28 21 -32 19 -39 -25 -7 -40 -25 -56
-25 -22 0 14 -2 15 -10 2 -14 -21 -12 -30 5 -30 8 0 15 -5 15 -11 0 -6 -7 -9
-15 -6 -8 4 -17 2 -20 -2 -2 -5 6 -11 20 -13 24 -5 29 1 26 28 -1 7 9 14 21
18 35 9 46 6 18 -5 l-25 -10 33 -16 c17 -8 32 -21 32 -28 0 -8 3 -21 7 -31 5
-13 3 -16 -9 -11 -9 3 -24 0 -35 -8 -17 -13 -17 -13 2 -12 13 1 20 -4 19 -15
-1 -10 2 -19 7 -19 5 -1 13 -2 18 -3 20 -2 22 -15 3 -25 -14 -7 -18 -18 -15
-38 4 -24 3 -26 -9 -12 -7 9 -24 20 -37 24 -21 6 -23 5 -16 -11 15 -35 19 -77
6 -70 -6 4 -11 18 -11 31 0 13 -4 27 -10 30 -5 3 -8 22 -5 41 4 37 -16 57 -37
36 -12 -12 -48 15 -48 37 0 10 7 8 24 -8 l23 -22 6 21 c3 12 12 20 21 18 8 -2
14 1 13 7 -1 5 -11 8 -21 6 -13 -2 -17 2 -13 11 3 8 -4 20 -15 27 -18 11 -24
9 -47 -13 -21 -21 -23 -28 -12 -35 11 -7 11 -15 2 -41 -16 -48 -14 -60 12 -60
35 0 67 -11 61 -21 -3 -5 -12 -9 -20 -9 -8 0 -12 5 -8 11 4 7 -4 10 -25 7 -20
-2 -35 3 -41 12 -5 8 -10 13 -11 10 -10 -50 -9 -60 6 -60 9 0 14 4 11 9 -10
15 20 20 44 8 31 -16 48 -76 26 -93 -9 -6 -12 -15 -8 -19 4 -4 -3 -5 -15 -2
-15 3 -23 1 -23 -8 0 -7 -3 -21 -7 -31 -4 -12 -3 -15 5 -10 18 11 15 -15 -6
-58 -22 -44 -33 -39 -21 11 9 41 4 57 -14 46 -19 -12 -37 -12 -37 -1 0 16 -28
-11 -35 -33 -8 -24 63 -118 75 -99 5 8 9 6 14 -6 6 -16 8 -16 21 2 11 15 17
16 23 6 7 -10 11 -10 22 3 14 16 50 21 50 6 0 -6 -10 -17 -22 -25 -17 -12 -19
-18 -9 -29 8 -11 9 -22 1 -43 -11 -27 -10 -27 7 -12 19 17 37 13 39 -9 3 -39
5 -44 14 -38 5 3 17 -3 27 -15 l18 -20 17 22 c9 13 20 19 24 15 4 -4 -3 -18
-16 -32 l-24 -25 -22 21 c-26 25 -39 12 -16 -16 10 -12 25 -19 37 -17 17 4 18
2 6 -12 -11 -13 -11 -17 3 -22 9 -3 13 -10 10 -15 -3 -6 -18 6 -34 26 -18 22
-30 31 -33 23 -2 -7 -3 -4 -1 7 3 19 2 19 -14 -1 -9 -12 -22 -30 -27 -39 -6
-10 -24 -18 -42 -19 -17 0 -29 -3 -27 -5 2 -2 -1 -10 -7 -18 -9 -10 -3 -13 32
-14 24 -1 55 -5 69 -10 16 -5 2 -6 -40 -2 l-64 5 29 -24 c17 -14 48 -37 69
-52 21 -14 32 -26 24 -26 -9 0 -21 7 -28 15 -8 9 -21 13 -34 10 -14 -4 -17 -3
-8 3 10 7 10 11 -2 21 -17 14 -40 5 -30 -11 4 -7 2 -8 -5 -4 -8 6 -9 11 -2 20
12 15 -3 31 -56 61 -18 10 -30 22 -27 26 2 5 -4 13 -15 18 -25 14 -34 14 -26
1 3 -6 -1 -7 -10 -4 -12 5 -13 10 -5 18 7 7 4 15 -12 27 -17 13 -21 26 -20 56
2 21 4 57 4 81 2 36 5 42 24 42 29 0 39 -16 23 -36 -9 -12 -9 -13 2 -9 8 3 19
15 24 28 7 14 17 21 30 18 19 -3 19 -2 2 17 -11 12 -26 18 -41 15 -13 -3 -27
0 -31 7 -11 17 3 24 20 10 21 -18 19 3 -4 31 l-18 23 -27 -55 c-14 -31 -26
-61 -26 -67 0 -6 -4 -12 -9 -14 -5 -1 -29 -43 -54 -93 -82 -164 -181 -289
-280 -357 -98 -67 -128 -76 -228 -73 -76 3 -96 7 -136 31 -145 84 -237 189
-340 386 -31 59 -60 105 -64 102 -5 -3 -9 3 -9 12 0 27 -50 125 -60 119 -6 -3
-7 1 -4 10 4 8 -2 27 -11 41 -14 21 -19 24 -26 13 -7 -12 -9 -11 -9 1 0 12 -2
12 -9 1 -6 -9 -11 -10 -15 -2 -14 23 -24 0 -16 -36 13 -54 1 -61 -21 -13 -20
45 -25 75 -10 66 5 -4 7 3 4 14 -3 11 -9 20 -15 20 -5 0 -18 9 -29 19 -17 15
-19 23 -10 39 6 11 7 23 3 27 -10 10 28 35 54 35 12 0 24 -5 26 -12 4 -12 28
-3 28 10 -1 19 -19 34 -31 26 -8 -4 -27 -7 -43 -5 -18 2 -26 -1 -22 -8 4 -6 0
-11 -8 -11 -8 0 -17 4 -20 9 -6 10 26 21 62 21 24 0 27 14 12 56 l-11 28 -21
-21 c-17 -17 -24 -19 -39 -10 -26 16 -48 -5 -29 -28 8 -10 9 -15 2 -15 -6 0
-9 -6 -6 -14 3 -8 1 -17 -5 -21 -6 -3 -11 -17 -11 -31 0 -13 -4 -24 -10 -24
-13 0 -13 26 1 51 17 33 5 42 -23 16 -30 -28 -40 -25 -32 8 4 17 0 24 -17 28
-21 6 -20 20 2 23 5 1 13 2 19 3 5 0 7 8 4 16 -6 13 6 20 29 16 4 0 7 3 7 9 0
10 -21 14 -47 11 -16 -2 -17 11 -1 27 7 7 8 12 3 12 -4 0 0 9 10 20 10 11 24
20 32 20 8 0 11 5 8 10 -3 6 1 10 11 10 13 0 15 6 9 38 -9 47 -9 47 -36 29
-20 -15 -23 -14 -40 8 -24 29 -26 53 -4 35 8 -7 15 -19 15 -28 0 -13 3 -12 19
2 12 11 25 15 33 10 10 -6 10 -4 -1 9 -11 14 -11 20 0 33 12 15 11 19 -9 32
-12 8 -22 18 -22 23 0 14 48 11 53 -3 4 -10 8 -10 15 1 8 10 12 9 24 -7 9 -14
19 -18 27 -12 18 11 -1 67 -20 61 -45 -13 -71 -13 -67 0 3 8 18 13 37 13 34
-2 39 10 16 40 -18 23 -20 50 -4 40 7 -4 9 0 6 12 -13 46 -18 99 -8 84 9 -13
14 -13 32 -2 11 7 23 12 25 10 2 -3 4 -25 5 -51 1 -26 7 -47 12 -47 6 0 2 -9
-8 -20 -16 -17 -16 -26 -7 -77 6 -32 14 -82 17 -110 7 -55 12 -61 34 -40 10
10 12 8 9 -8 -2 -11 -10 -19 -16 -18 -7 2 -12 -2 -12 -7 0 -6 5 -10 11 -10 5
0 7 -6 3 -12 -12 -18 -4 -78 13 -112 8 -16 16 -38 18 -50 8 -70 19 -113 33
-129 14 -16 14 -19 2 -27 -12 -7 -12 -12 -2 -22 6 -6 12 -27 12 -45 0 -42 19
-83 39 -84 10 0 11 -2 4 -6 -8 -3 -9 -10 -3 -21 5 -9 34 -69 66 -132 68 -136
80 -158 129 -230 49 -72 155 -190 172 -190 7 0 13 -4 13 -8 0 -4 20 -18 44
-30 32 -15 46 -18 50 -9 2 7 5 5 5 -4 1 -21 30 -29 111 -29 81 0 110 8 110 29
0 12 2 13 8 3 15 -23 91 27 180 117 45 47 82 91 82 98 0 7 4 13 8 13 4 0 22
24 39 53 37 62 150 284 157 310 3 9 6 21 8 25 1 4 7 13 14 20 19 19 34 80 27
113 -3 18 0 38 10 52 8 13 18 44 22 69 5 36 4 45 -8 45 -8 0 -13 -6 -11 -12 5
-13 -100 -115 -118 -115 -5 0 10 22 34 50 37 44 68 84 116 156 7 10 3 0 -8
-23 -23 -49 -24 -54 -8 -51 15 3 35 54 48 122 8 39 7 54 -4 71 -12 18 -13 36
-5 96 6 41 16 95 24 121 7 25 11 49 8 52 -4 3 -2 6 4 6 5 0 11 21 12 48 1 26
4 56 8 67 6 19 6 19 16 -2 6 -13 16 -23 23 -23z m-808 -563 l-2 -52 -3 53 c-3
37 -8 52 -19 52 -7 0 -14 -8 -14 -17 -1 -10 -2 -39 -4 -65 l-4 -48 57 0 56 0
-3 66 c-3 44 0 64 7 60 5 -4 8 -13 4 -21 -9 -25 7 -106 23 -112 20 -7 25 0 29
39 3 26 20 85 31 106 1 2 19 -13 40 -32 22 -20 34 -36 28 -36 -6 0 -17 7 -24
15 -14 16 -45 21 -35 5 3 -5 -3 -27 -15 -49 -24 -49 -25 -58 -3 -40 14 12 16
12 11 -2 -12 -33 24 -15 45 23 25 44 28 45 51 19 16 -17 16 -21 -6 -57 -12
-22 -26 -42 -31 -45 -5 -4 -4 -10 2 -14 7 -4 19 -1 28 7 14 11 16 11 9 -2 -4
-8 0 -6 8 4 9 11 18 17 21 14 9 -9 -16 -67 -28 -65 -7 1 -11 -4 -9 -10 1 -7
-3 -13 -10 -13 -6 0 -8 -3 -5 -7 4 -3 -4 -16 -18 -28 -13 -13 -21 -26 -18 -29
4 -3 -4 -17 -17 -31 -13 -14 -20 -25 -15 -25 5 0 0 -7 -11 -16 -10 -8 -12 -13
-4 -9 8 4 4 -2 -9 -13 -16 -13 -22 -25 -17 -37 3 -10 1 -25 -6 -33 -10 -12
-10 -14 0 -8 6 4 12 2 12 -3 0 -6 -5 -11 -11 -11 -8 0 -8 -4 0 -14 9 -10 8
-16 -4 -26 -13 -11 -15 -7 -15 28 0 23 4 43 9 46 5 3 7 14 4 24 -4 18 21 67
83 163 16 24 35 50 41 57 21 22 15 30 -19 26 -17 -2 -36 0 -42 5 -6 5 -46 20
-89 35 l-77 27 -68 -24 c-37 -14 -83 -32 -103 -40 -30 -13 -39 -14 -54 -3 -14
10 -15 15 -5 21 8 5 11 4 7 -2 -4 -6 0 -13 8 -17 21 -8 19 0 -14 59 l-29 52
21 18 c11 10 22 14 24 8 8 -23 49 -68 61 -67 6 1 17 2 22 3 7 1 7 8 0 22 -6
11 -12 33 -12 49 -1 16 -4 27 -9 25 -4 -3 -9 1 -12 7 -3 10 -10 8 -26 -6 -11
-11 -21 -17 -21 -14 0 7 61 70 64 66 2 -2 8 -17 14 -35 8 -24 8 -33 -1 -37 -7
-2 -4 -5 6 -5 10 -1 15 -6 12 -12 -12 -18 4 -61 22 -57 12 2 17 18 19 67 2 35
0 61 -3 57 -3 -3 -12 2 -19 12 -14 20 -1 44 20 36 8 -3 16 3 20 12 6 15 10 13
26 -14 14 -23 19 -48 18 -85z m-318 -235 c18 -42 46 -104 62 -137 40 -78 72
-193 59 -209 -6 -7 -12 -48 -14 -91 -2 -60 -3 -48 -5 46 -2 150 -8 181 -33
197 -17 11 -18 10 -9 -14 6 -14 9 -73 8 -132 l-2 -107 -5 115 c-6 124 -14 145
-66 195 -35 33 -99 161 -88 178 3 5 1 7 -4 4 -6 -4 -14 0 -17 9 -3 8 -2 12 4
9 6 -3 10 -2 10 4 0 9 47 20 62 14 3 -2 21 -38 38 -81z m748 75 c7 3 12 -3 12
-14 0 -15 2 -16 10 -3 23 36 6 -7 -35 -89 -24 -49 -57 -99 -72 -111 -39 -30
-52 -58 -54 -110 l-1 -45 -9 33 c-7 22 -6 39 2 53 13 26 9 31 -13 15 -15 -11
-19 -40 -26 -192 -8 -158 -9 -167 -11 -71 -1 85 -4 109 -16 113 -8 4 -12 10
-9 15 3 5 10 6 16 3 7 -5 9 -2 6 8 -9 23 17 117 54 193 19 39 50 102 68 142
26 59 36 71 49 64 9 -5 22 -6 29 -4z m-1059 -184 c-8 -10 -21 -24 -29 -30 -13
-12 -13 -15 3 -27 9 -7 17 -18 17 -23 0 -6 8 -17 18 -24 15 -13 16 -12 4 3
-19 23 -7 38 30 38 23 0 28 -3 20 -12 -13 -17 -8 -64 7 -60 6 1 11 -5 11 -14
0 -8 -4 -12 -10 -9 -6 4 -7 -5 -4 -24 5 -23 1 -35 -19 -55 -22 -22 -24 -27
-10 -34 13 -8 12 -10 -6 -15 -13 -3 -19 -1 -15 5 4 6 1 8 -7 6 -8 -3 -13 -12
-11 -19 2 -8 0 -11 -4 -7 -4 4 -20 -4 -36 -17 -16 -14 -33 -25 -36 -26 -26 -2
-94 -8 -129 -11 -23 -1 -39 -6 -36 -11 2 -4 14 -5 26 -2 22 5 22 5 0 -6 -12
-7 -30 -33 -40 -58 -9 -25 -22 -49 -27 -53 -7 -5 -1 -27 19 -63 30 -56 40 -65
48 -42 2 6 4 -2 3 -20 -1 -20 -5 -28 -11 -22 -19 19 -51 8 -83 -30 -40 -49
-102 -138 -102 -148 0 -4 21 13 47 37 25 25 -6 -13 -71 -85 -64 -71 -114 -135
-112 -141 2 -6 -9 -24 -25 -40 -16 -15 -29 -24 -29 -20 0 10 98 153 110 161 7
5 5 12 -7 22 -17 13 -16 13 5 3 21 -10 28 -4 23 23 -1 5 3 6 9 2 5 -3 10 -1
10 5 0 6 5 8 13 4 7 -5 7 -2 -2 10 -12 15 -12 17 0 14 8 -2 14 5 14 16 0 11 6
21 13 24 6 2 10 7 7 12 -3 5 17 32 45 62 48 51 59 68 42 68 -4 0 -24 22 -45
50 l-37 49 -59 -35 c-32 -19 -86 -60 -121 -91 l-61 -56 58 -61 58 -61 -61 58
c-33 32 -64 54 -69 50 -4 -5 -5 -2 0 5 10 19 -72 102 -94 95 -12 -3 -11 -2 2
7 10 6 22 21 27 33 7 17 9 18 9 5 1 -9 -4 -20 -10 -24 -7 -4 5 -23 32 -50 l43
-43 42 62 c23 34 62 83 86 108 23 25 35 36 25 24 -9 -12 -15 -24 -11 -27 3 -4
-5 -14 -18 -22 -26 -17 -94 -106 -82 -106 4 0 17 8 28 19 12 10 54 44 95 75
57 42 83 56 108 56 47 0 70 14 92 58 27 54 37 96 11 50 -28 -51 -36 -48 -10 3
12 23 19 47 16 54 -3 8 4 24 14 37 l19 23 1 -31 c0 -28 3 -31 26 -26 18 3 23
9 19 21 -5 13 -4 14 6 4 7 -7 31 -13 52 -13 33 0 37 2 28 14 -9 11 -9 15 0 18
7 2 -5 4 -25 4 -23 0 -41 6 -46 15 -5 7 -15 23 -23 34 -14 19 -16 19 -34 2
-22 -20 -39 -22 -49 -6 -4 7 1 9 12 7 11 -2 27 5 37 16 22 25 14 33 -15 14
-20 -13 -25 -13 -39 1 -26 26 -32 41 -16 41 8 0 18 -10 21 -22 6 -22 7 -22 20
-5 8 10 23 20 33 22 10 2 19 4 21 4 2 1 -8 16 -21 34 -29 39 -40 57 -33 57 2
0 15 -16 27 -36 21 -35 23 -36 31 -15 6 19 11 20 29 11 19 -11 20 -10 8 11 -9
17 -9 24 0 27 17 6 13 26 -9 40 -11 7 -20 17 -20 22 0 15 37 12 52 -4 11 -11
15 -11 24 2 10 14 12 13 18 -6 9 -26 26 -29 26 -4 0 12 3 13 8 4 6 -9 16 -4
37 18 31 33 45 40 24 13z m1655 -105 c22 -15 61 -35 88 -43 57 -17 106 -44
134 -76 10 -12 33 -30 49 -40 17 -11 25 -19 18 -19 -7 0 -35 20 -63 45 -55 49
-99 75 -126 75 -19 0 -74 -47 -74 -62 0 -5 4 -7 9 -3 5 3 12 1 15 -4 4 -5 2
-13 -4 -16 -6 -4 -1 -14 12 -25 15 -13 18 -19 9 -20 -8 0 -22 7 -31 15 -16 15
-17 14 -12 -12 l5 -27 -28 22 c-32 25 -50 20 -34 -9 5 -11 8 -30 6 -42 -3 -18
-5 -16 -12 12 -8 34 -8 34 -17 11 -7 -19 -11 -21 -17 -11 -5 8 -3 24 5 39 9
19 10 30 2 39 -8 9 -7 13 2 13 7 0 10 7 6 15 -3 8 -1 15 5 15 6 0 7 5 4 10 -9
14 4 52 16 45 5 -4 9 -15 9 -26 0 -13 6 -19 18 -17 11 2 16 -2 14 -12 -2 -8
13 0 32 19 l36 35 -38 21 c-39 23 -113 72 -122 82 -10 12 46 -21 84 -49z m-95
-246 c9 -16 19 -22 32 -19 10 3 19 1 19 -3 0 -10 67 -50 84 -50 6 0 28 -17 47
-37 31 -35 31 -35 3 -10 l-31 28 -6 -23 c-4 -13 -1 -26 6 -30 8 -5 6 -8 -7 -8
-14 0 -17 5 -12 25 5 21 2 27 -21 37 -16 7 -36 20 -46 30 -10 10 -23 18 -30
18 -7 -1 -2 -9 11 -19 12 -11 22 -25 22 -33 -1 -7 -12 0 -25 16 -13 17 -22 33
-20 36 2 3 -5 11 -15 18 -32 19 -36 -21 -8 -77 l24 -48 -23 -49 c-12 -26 -21
-50 -19 -51 2 -2 15 1 30 7 32 12 54 53 38 72 -8 10 -1 12 35 9 35 -2 59 -13
104 -48 32 -24 62 -49 65 -55 4 -7 -8 0 -27 14 -19 13 -50 35 -70 46 l-37 22
-41 -55 c-22 -30 -41 -57 -41 -60 0 -3 18 -25 41 -50 22 -24 42 -51 43 -60 1
-9 8 -20 15 -24 7 -5 12 -11 12 -15 -3 -20 0 -26 9 -21 6 4 10 3 9 -2 -3 -20
2 -33 12 -31 6 2 13 -5 14 -14 2 -10 19 -37 38 -60 53 -67 54 -79 1 -18 -27
30 -80 88 -118 128 -38 39 -64 72 -58 72 6 0 26 -18 43 -40 18 -22 34 -38 37
-36 5 6 -82 131 -117 168 -29 30 -66 36 -75 13 -7 -18 24 -21 41 -4 9 9 10 7
6 -10 -3 -13 -1 -21 6 -21 7 0 9 -4 6 -10 -4 -6 -12 -6 -23 0 -9 6 -29 14 -44
20 -22 7 -28 16 -27 37 l1 28 7 -25 c9 -34 25 -8 17 28 -5 24 -5 25 5 8 11
-17 15 -14 46 35 27 44 31 56 20 64 -8 5 -20 30 -29 55 -9 28 -24 50 -39 57
-18 10 -20 13 -6 13 13 0 17 9 17 41 l0 42 19 -24 c10 -13 24 -35 30 -47z
m-1726 -332 c4 -15 0 -19 -17 -17 -15 1 -21 -3 -20 -16 2 -13 -1 -15 -11 -7
-24 20 -25 -7 0 -30 l24 -22 21 20 c24 22 46 16 88 -25 30 -31 47 -29 62 6 6
16 19 32 27 35 8 4 13 13 9 21 -3 8 -1 15 3 15 5 0 14 -33 21 -72 6 -40 14
-80 17 -88 3 -8 5 -23 4 -34 -2 -12 1 -16 10 -11 7 5 10 4 6 -2 -7 -11 35 -52
82 -83 22 -15 22 -16 5 -30 -10 -8 -15 -10 -11 -3 4 6 -1 19 -10 27 -10 9 -35
33 -55 53 -28 28 -40 34 -50 26 -7 -6 -43 -27 -81 -46 l-67 -34 25 33 26 33
-22 22 c-17 17 -23 18 -30 8 -4 -7 -5 -17 -2 -22 3 -5 -4 -18 -15 -30 -11 -12
-27 -35 -35 -52 -23 -43 -21 -26 4 30 l21 47 -21 21 c-19 20 -21 20 -39 4 -10
-9 -21 -15 -24 -12 -3 3 -16 -7 -30 -22 -13 -15 -37 -39 -54 -53 -16 -13 5 10
46 53 l74 77 21 -20 c38 -36 67 -18 40 24 -11 17 -13 26 -5 31 8 5 4 15 -12
33 -22 24 -10 23 22 -3 8 -7 24 -15 35 -19 14 -4 11 2 -12 23 -38 35 -69 35
-65 0 2 -19 0 -21 -10 -11 -21 21 -34 13 -58 -39 -13 -28 -28 -53 -32 -55 -5
-3 6 24 24 60 l32 65 -22 24 -23 24 38 31 c21 17 39 31 39 32 1 0 4 -9 7 -20z
m1452 -50 c9 -17 14 -34 11 -39 -3 -4 6 -14 20 -22 24 -13 28 -11 53 20 19 23
30 30 35 22 4 -7 -2 -20 -16 -30 -13 -11 -20 -23 -16 -27 5 -4 16 0 26 9 25
23 33 21 23 -5 -4 -13 -7 -28 -5 -33 2 -6 -13 -29 -35 -52 l-38 -43 29 -40 30
-41 -33 20 c-19 11 -54 31 -79 44 -25 14 -44 31 -42 38 3 10 -1 9 -15 -2 -10
-9 -25 -20 -33 -24 -12 -7 -13 -6 -3 7 7 8 9 19 5 23 -4 5 -2 5 4 2 7 -4 14 0
18 8 3 8 0 15 -7 15 -8 0 -8 3 2 9 9 6 12 20 9 40 -2 17 -1 31 3 31 4 0 10 23
14 50 8 58 18 62 40 20z m-260 -120 c-3 -5 0 -20 7 -34 11 -25 12 -26 32 -9
21 18 21 18 3 -3 -17 -21 -17 -23 6 -67 21 -43 25 -45 43 -33 10 7 33 21 49
32 l30 18 -19 -22 c-11 -12 -25 -22 -33 -22 -7 0 -16 -7 -19 -15 -4 -8 -11
-12 -17 -8 -7 4 -8 0 -3 -13 6 -16 4 -15 -17 4 -14 14 -28 19 -31 14 -3 -6 -1
-12 4 -14 6 -2 -5 -17 -24 -34 -19 -17 -40 -28 -46 -24 -15 9 -16 167 -1 203
6 16 11 32 11 37 0 5 7 7 15 4 8 -4 13 -10 10 -14z m-337 -295 c37 -77 45
-106 34 -117 -9 -9 -12 -6 -12 14 0 15 -4 30 -10 33 -5 3 -10 -1 -10 -9 0 -22
-17 -20 -24 2 -4 14 -5 14 -4 -3 1 -39 -2 -45 -22 -45 -15 0 -20 7 -21 28 0
26 -1 26 -9 5 -11 -28 -24 -31 -15 -4 3 11 1 22 -5 26 -6 4 -13 -7 -16 -25 -4
-20 -10 -28 -16 -22 -6 6 -4 21 6 40 9 17 16 40 16 52 0 11 11 32 25 45 13 14
22 25 19 25 -2 0 1 10 7 22 11 21 12 21 30 -13 10 -19 22 -43 27 -54z m-598
23 c0 6 9 10 19 9 16 -1 17 -5 10 -25 -13 -35 -11 -39 7 -14 12 18 19 20 29
12 11 -9 10 -17 -7 -46 -18 -31 -39 -51 -22 -21 6 9 4 9 -6 0 -12 -11 -17 -33
-23 -95 -1 -9 -5 -14 -10 -11 -5 3 -6 -4 -2 -17 5 -15 4 -20 -4 -16 -7 4 -9 1
-5 -8 3 -8 -6 -34 -21 -58 -15 -24 -25 -36 -22 -28 2 8 8 26 12 40 7 23 7 24
-10 10 -17 -14 -18 -13 -12 10 63 238 63 237 42 262 l-20 23 23 -19 c12 -11
22 -14 22 -8z m320 -18 c36 -22 57 -40 47 -40 -31 0 -68 -52 -46 -65 5 -4 3
-13 -7 -22 -11 -11 -12 -19 -5 -26 21 -21 11 -27 -19 -12 -37 19 -38 14 -2
-27 16 -18 32 -42 36 -53 6 -17 4 -17 -21 5 -75 65 -92 84 -86 93 3 6 1 7 -4
4 -6 -4 -18 2 -27 12 -12 14 -14 21 -6 26 7 4 9 18 6 31 -4 14 -2 24 4 24 6 0
8 5 4 12 -5 8 -1 9 12 4 15 -6 16 -5 7 5 -9 9 -9 18 3 40 8 16 20 29 27 29 6
-1 41 -19 77 -40z m565 14 c22 -29 26 -45 28 -91 0 -26 3 -30 14 -22 7 7 13 8
13 5 0 -16 -103 -115 -113 -109 -5 3 -7 1 -3 -5 3 -6 -8 -21 -26 -34 l-33 -23
19 30 c10 17 28 40 40 53 l21 23 -28 -10 c-16 -6 -30 -11 -31 -11 -2 0 -2 16
-1 36 2 26 11 43 31 61 18 15 21 19 7 11 -19 -11 -25 -9 -46 10 -13 12 -32 22
-43 22 -15 0 109 79 126 80 3 0 14 -12 25 -26z"/>
</g>
</svg>
